<?xml version="1.0" encoding="UTF-8" standalone="no"?>
<!-- Created with Inkscape (http://www.inkscape.org/) -->

<svg
   xmlns:dc="http://purl.org/dc/elements/1.1/"
   xmlns:cc="http://creativecommons.org/ns#"
   xmlns:rdf="http://www.w3.org/1999/02/22-rdf-syntax-ns#"
   xmlns:svg="http://www.w3.org/2000/svg"
   xmlns="http://www.w3.org/2000/svg"
   xmlns:sodipodi="http://sodipodi.sourceforge.net/DTD/sodipodi-0.dtd"
   xmlns:inkscape="http://www.inkscape.org/namespaces/inkscape"
   width="128"
   height="128"
   viewBox="0 0 33.866666 33.866668"
   version="1.1"
   id="svg7304"
   inkscape:version="0.92.3 (2405546, 2018-03-11)"
   sodipodi:docname="activity_pest.svg">
  <defs
     id="defs7298" />
  <sodipodi:namedview
     id="base"
     pagecolor="#ffffff"
     bordercolor="#666666"
     borderopacity="1.0"
     inkscape:pageopacity="0.0"
     inkscape:pageshadow="2"
     inkscape:zoom="2.7598948"
     inkscape:cx="52.742698"
     inkscape:cy="46.143178"
     inkscape:document-units="mm"
     inkscape:current-layer="g7218"
     showgrid="false"
     units="px"
     inkscape:window-width="1329"
     inkscape:window-height="713"
     inkscape:window-x="37"
     inkscape:window-y="27"
     inkscape:window-maximized="1" />
  <metadata
     id="metadata7301">
    <rdf:RDF>
      <cc:Work
         rdf:about="">
        <dc:format>image/svg+xml</dc:format>
        <dc:type
           rdf:resource="http://purl.org/dc/dcmitype/StillImage" />
        <dc:title />
      </cc:Work>
    </rdf:RDF>
  </metadata>
  <g
     inkscape:label="Layer 1"
     inkscape:groupmode="layer"
     id="layer1"
     transform="translate(0,-263.13332)">
    <g
       transform="matrix(0.26458333,0,0,0.26458333,164.66332,108.11058)"
       id="g7218">
      <rect
         y="585.91272"
         x="-622.34955"
         height="128"
         width="128"
         id="rect6853-7-3"
         style="opacity:1;fill:#f3b562;fill-opacity:1;stroke:#000000;stroke-width:0;stroke-miterlimit:4;stroke-dasharray:none;stroke-dashoffset:0;stroke-opacity:1" />
      <path
         style="fill:#d43759;fill-opacity:1;stroke-width:0.33179617"
         inkscape:connector-curvature="0"
         d="m -526.34827,635.92852 c -0.9569,-0.98611 -2.5326,-1.00999 -3.51836,-0.0528 l -9.89051,9.59787 c -2.41382,-3.00144 -4.95372,-5.88176 -7.34034,-8.42033 l 4.78451,-2.12781 c 0.62609,-0.27837 1.10986,-0.80261 1.33647,-1.44928 l 5.00914,-14.26557 c 0.45521,-1.29668 -0.22695,-2.71709 -1.52362,-3.17265 -1.29532,-0.45489 -2.71707,0.22728 -3.1723,1.52361 l -4.65344,13.2526 -0.48443,0.21535 c 0.012,-0.18815 0.0199,-0.37858 0.0199,-0.57169 0,-5.60538 -5.48991,-12.12085 -12.56745,-12.12085 -7.07954,0 -12.57077,6.51582 -12.57077,12.12085 0,0.19276 0.007,0.38255 0.0195,0.57035 l -0.48145,-0.21433 -4.65376,-13.25228 c -0.45489,-1.29666 -1.87565,-1.97783 -3.1723,-1.52361 -1.29666,0.45524 -1.97884,1.87565 -1.5236,3.17265 l 5.00912,14.26557 c 0.22694,0.64634 0.7107,1.17091 1.33647,1.44928 l 4.78417,2.12781 c -2.38694,2.5389 -4.92684,5.41923 -7.34066,8.42065 l -9.89018,-9.59819 c -0.98643,-0.95723 -2.56213,-0.93368 -3.51836,0.0528 -0.95724,0.98642 -0.93335,2.56179 0.0528,3.51869 l 10.29962,9.99503 c -6.41395,8.73255 -10.82054,17.67147 -6.76599,21.72701 1.09062,1.09028 2.52397,1.5591 4.18263,1.5591 2.02827,0 4.3943,-0.7034 6.88277,-1.82718 l 3.37172,11.25253 c 0.32316,1.07833 1.31191,1.77477 2.38295,1.77477 0.23657,0 0.47713,-0.0338 0.71503,-0.10525 1.31657,-0.3945 2.06409,-1.78174 1.66959,-3.09797 l -3.65407,-12.19418 c 1.48845,-0.88722 2.97588,-1.86072 4.41986,-2.86772 1.57304,3.06746 4.76625,5.17237 8.44389,5.17237 3.67761,0 6.8705,-2.10491 8.44388,-5.17203 1.44431,1.00699 2.93141,1.98048 4.41984,2.86771 l -3.65406,12.19385 c -0.39418,1.31655 0.35303,2.7038 1.66959,3.09797 0.23823,0.0713 0.47846,0.10525 0.71502,0.10525 1.07072,0 2.05979,-0.69677 2.38297,-1.77477 l 3.3717,-11.25253 c 2.48847,1.12378 4.85451,1.82686 6.8828,1.82686 1.65863,0 3.09233,-0.46915 4.18295,-1.55945 4.05421,-4.05521 -0.35271,-12.99379 -6.76666,-21.72634 l 10.29962,-9.99503 c 0.98709,-0.9569 1.01064,-2.53227 0.0537,-3.51869 z m -32.00075,-12.61456 c 4.08774,0 7.59052,3.92813 7.59052,7.1439 0,3.88467 -6.32305,4.08143 -7.59052,4.08143 -1.26811,0 -7.5938,-0.19676 -7.5938,-4.08143 3.2e-4,-3.21544 3.5041,-7.1439 7.5938,-7.1439 z m -24.894,44.33892 c -0.27506,-0.35636 -0.47645,-3.05884 3.56913,-9.77207 1.3554,-2.24924 3.00708,-4.6498 4.89964,-7.13296 0.0223,-0.0276 0.0439,-0.0557 0.0646,-0.0836 2.03723,-2.66764 4.35283,-5.42918 6.87415,-8.2 v 17.82408 c -9.72561,7.12698 -14.68927,7.91136 -15.40762,7.36456 z m 24.89335,-1.79404 c -2.48616,0 -4.50911,-2.02263 -4.50911,-4.50909 v -22.30766 c 1.36501,0.31022 2.875,0.47414 4.50976,0.47414 1.63444,0 3.14378,-0.16421 4.50845,-0.47414 v 22.30766 c 0,2.48646 -2.02263,4.50909 -4.5091,4.50909 z m 24.8993,1.78773 c -0.72429,0.55277 -5.68864,-0.23226 -15.41325,-7.35758 v -17.82475 c 2.52165,2.77116 4.83758,5.53302 6.87482,8.20067 0.0209,0.0276 0.0418,0.0554 0.0638,0.0823 1.89257,2.48348 3.54459,4.88436 4.90031,7.13394 4.04526,6.71323 3.84385,9.41537 3.57443,9.76543 z"
         id="path2559-6" />
    </g>
  </g>
</svg>
